<?xml version="1.0" encoding="UTF-8" standalone="no"?>
<svg
   width="500"
   height="500"
   version="1.1"
   id="svg9"
   sodipodi:docname="EmpireWalkQR.svg"
   inkscape:version="1.3.2 (091e20e, 2023-11-25)"
   inkscape:export-filename="EmpireWalkQR.png"
   inkscape:export-xdpi="96"
   inkscape:export-ydpi="96"
   xmlns:inkscape="http://www.inkscape.org/namespaces/inkscape"
   xmlns:sodipodi="http://sodipodi.sourceforge.net/DTD/sodipodi-0.dtd"
   xmlns="http://www.w3.org/2000/svg"
   xmlns:svg="http://www.w3.org/2000/svg">
  <sodipodi:namedview
     id="namedview9"
     pagecolor="#ffffff"
     bordercolor="#000000"
     borderopacity="0.25"
     inkscape:showpageshadow="2"
     inkscape:pageopacity="0.0"
     inkscape:pagecheckerboard="0"
     inkscape:deskcolor="#d1d1d1"
     inkscape:zoom="1.52"
     inkscape:cx="250"
     inkscape:cy="249.67105"
     inkscape:window-width="1392"
     inkscape:window-height="1212"
     inkscape:window-x="0"
     inkscape:window-y="25"
     inkscape:window-maximized="0"
     inkscape:current-layer="svg9" />
  <defs
     id="defs7">
    <clipPath
       id="a">
      <path
         d="M25 125h10v10H25zm0 10h10v10H25zm0 10h10v10H25zm0 20h10v10H25zm0 10h10v10H25zm0 20h10v10H25zm0 10h10v10H25zm0 40h10v10H25zm0 40h10v10H25zm0 20h10v10H25zm0 10h10v10H25zm0 10h10v10H25zm0 30h10v10H25zm0 30h10v10H25zm10-260h10v10H35zm0 30h10v10H35zm0 70h10v10H35zm0 10h10v10H35zm0 30h10v10H35zm0 10h10v10H35zm0 70h10v10H35zm0 10h10v10H35zm0 20h10v10H35zm10-270h10v10H45zm0 10h10v10H45zm0 40h10v10H45zm0 20h10v10H45zm0 20h10v10H45zm0 40h10v10H45zm0 30h10v10H45zm0 30h10v10H45zm0 20h10v10H45zm0 20h10v10H45zm0 20h10v10H45zm0 20h10v10H45zm10-250h10v10H55zm0 20h10v10H55zm0 40h10v10H55zm0 20h10v10H55zm0 10h10v10H55zm0 30h10v10H55zm0 20h10v10H55zm0 10h10v10H55zm0 20h10v10H55zm0 10h10v10H55zm0 50h10v10H55zm0 20h10v10H55zm0 10h10v10H55zm10-280h10v10H65zm0 10h10v10H65zm0 10h10v10H65zm0 10h10v10H65zm0 10h10v10H65zm0 10h10v10H65zm0 10h10v10H65zm0 40h10v10H65zm0 20h10v10H65zm0 10h10v10H65zm0 10h10v10H65zm0 10h10v10H65zm0 10h10v10H65zm0 10h10v10H65zm0 10h10v10H65zm0 30h10v10H65zm0 10h10v10H65zm0 20h10v10H65zm0 10h10v10H65zm0 10h10v10H65zm0 10h10v10H65zm0 10h10v10H65zm10-280h10v10H75zm0 20h10v10H75zm0 40h10v10H75zm0 20h10v10H75zm0 10h10v10H75zm0 20h10v10H75zm0 10h10v10H75zm0 40h10v10H75zm0 20h10v10H75zm0 10h10v10H75zm0 40h10v10H75zm0 10h10v10H75zm10-240h10v10H85zm0 20h10v10H85zm0 20h10v10H85zm0 20h10v10H85zm0 20h10v10H85zm0 20h10v10H85zm0 20h10v10H85zm0 20h10v10H85zm0 20h10v10H85zm0 20h10v10H85zm0 20h10v10H85zm0 20h10v10H85zm0 20h10v10H85zm0 20h10v10H85zm0 20h10v10H85zm10-250h10v10H95zm0 20h10v10H95zm0 10h10v10H95zm0 20h10v10H95zm0 20h10v10H95zm0 10h10v10H95zm0 10h10v10H95zm0 40h10v10H95zm0 50h10v10H95zm0 30h10v10H95zm0 10h10v10H95zm0 10h10v10H95zm0 10h10v10H95zm10-340h10v10h-10zm0 30h10v10h-10zm0 20h10v10h-10zm0 20h10v10h-10zm0 10h10v10h-10zm0 50h10v10h-10zm0 10h10v10h-10zm0 10h10v10h-10zm0 10h10v10h-10zm0 10h10v10h-10zm0 20h10v10h-10zm0 10h10v10h-10zm0 10h10v10h-10zm0 10h10v10h-10zm0 10h10v10h-10zm0 10h10v10h-10zm0 20h10v10h-10zm0 20h10v10h-10zm0 10h10v10h-10zm0 20h10v10h-10zm0 10h10v10h-10zm0 20h10v10h-10zm0 20h10v10h-10zm0 20h10v10h-10zm0 10h10v10h-10zm0 20h10v10h-10zm10-410h10v10h-10zm0 10h10v10h-10zm0 10h10v10h-10zm0 10h10v10h-10zm0 50h10v10h-10zm0 40h10v10h-10zm0 10h10v10h-10zm0 40h10v10h-10zm0 10h10v10h-10zm0 10h10v10h-10zm0 10h10v10h-10zm0 20h10v10h-10zm0 10h10v10h-10zm0 20h10v10h-10zm0 10h10v10h-10zm0 10h10v10h-10zm0 10h10v10h-10zm0 10h10v10h-10zm0 20h10v10h-10zm0 10h10v10h-10zm0 20h10v10h-10zm0 10h10v10h-10zm0 20h10v10h-10zm0 30h10v10h-10zm0 20h10v10h-10zm10-420h10v10h-10zm0 10h10v10h-10zm0 10h10v10h-10zm0 10h10v10h-10zm0 20h10v10h-10zm0 30h10v10h-10zm0 10h10v10h-10zm0 10h10v10h-10zm0 20h10v10h-10zm0 50h10v10h-10zm0 10h10v10h-10zm0 20h10v10h-10zm0 20h10v10h-10zm0 30h10v10h-10zm0 30h10v10h-10zm0 10h10v10h-10zm0 10h10v10h-10zm0 20h10v10h-10zm0 40h10v10h-10zm0 10h10v10h-10zm0 20h10v10h-10zm0 10h10v10h-10zm10-410h10v10h-10zm0 40h10v10h-10zm0 10h10v10h-10zm0 20h10v10h-10zm0 20h10v10h-10zm0 10h10v10h-10zm0 10h10v10h-10zm0 20h10v10h-10zm0 30h10v10h-10zm0 20h10v10h-10zm0 10h10v10h-10zm0 10h10v10h-10zm0 10h10v10h-10zm0 20h10v10h-10zm0 20h10v10h-10zm0 10h10v10h-10zm0 50h10v10h-10zm0 10h10v10h-10zm0 10h10v10h-10zm0 10h10v10h-10zm0 10h10v10h-10zm0 10h10v10h-10zm0 10h10v10h-10zm0 10h10v10h-10zm0 10h10v10h-10zm0 40h10v10h-10zm0 10h10v10h-10zm10-430h10v10h-10zm0 10h10v10h-10zm0 10h10v10h-10zm0 10h10v10h-10zm0 10h10v10h-10zm0 10h10v10h-10zm0 20h10v10h-10zm0 10h10v10h-10zm0 30h10v10h-10zm0 50h10v10h-10zm0 20h10v10h-10zm0 10h10v10h-10zm0 20h10v10h-10zm0 10h10v10h-10zm0 10h10v10h-10zm0 60h10v10h-10zm0 20h10v10h-10zm0 30h10v10h-10zm0 90h10v10h-10zm10-430h10v10h-10zm0 20h10v10h-10zm0 20h10v10h-10zm0 20h10v10h-10zm0 20h10v10h-10zm0 10h10v10h-10zm0 10h10v10h-10zm0 10h10v10h-10zm0 10h10v10h-10zm0 20h10v10h-10zm0 30h10v10h-10zm0 20h10v10h-10zm0 30h10v10h-10zm0 30h10v10h-10zm0 10h10v10h-10zm0 20h10v10h-10zm0 10h10v10h-10zm0 20h10v10h-10zm0 10h10v10h-10zm0 20h10v10h-10zm0 10h10v10h-10zm0 20h10v10h-10zm0 10h10v10h-10zm0 10h10v10h-10zm0 10h10v10h-10zm0 20h10v10h-10zm10-430h10v10h-10zm0 10h10v10h-10zm0 20h10v10h-10zm0 30h10v10h-10zm0 10h10v10h-10zm0 20h10v10h-10zm0 20h10v10h-10zm0 20h10v10h-10zm0 30h10v10h-10zm0 10h10v10h-10zm0 40h10v10h-10zm0 30h10v10h-10zm0 20h10v10h-10zm0 10h10v10h-10zm0 10h10v10h-10zm0 10h10v10h-10zm0 10h10v10h-10zm0 60h10v10h-10zm0 20h10v10h-10zm0 10h10v10h-10zm0 30h10v10h-10zm10-390h10v10h-10zm0 10h10v10h-10zm0 10h10v10h-10zm0 20h10v10h-10zm0 10h10v10h-10zm0 10h10v10h-10zm0 20h10v10h-10zm0 10h10v10h-10zm0 10h10v10h-10zm0 30h10v10h-10zm0 20h10v10h-10zm0 10h10v10h-10zm0 30h10v10h-10zm0 10h10v10h-10zm0 10h10v10h-10zm0 10h10v10h-10zm0 50h10v10h-10zm0 20h10v10h-10zm0 10h10v10h-10zm0 30h10v10h-10zm0 10h10v10h-10zm0 10h10v10h-10zm0 10h10v10h-10zm0 50h10v10h-10zm10-420h10v10h-10zm0 20h10v10h-10zm0 10h10v10h-10zm0 10h10v10h-10zm0 10h10v10h-10zm0 20h10v10h-10zm0 10h10v10h-10zm0 20h10v10h-10zm0 30h10v10h-10zm0 20h10v10h-10zm0 10h10v10h-10zm0 10h10v10h-10zm0 10h10v10h-10zm0 10h10v10h-10zm0 50h10v10h-10zm0 10h10v10h-10zm0 20h10v10h-10zm0 10h10v10h-10zm0 20h10v10h-10zm0 20h10v10h-10zm0 10h10v10h-10zm0 30h10v10h-10zm0 10h10v10h-10zm0 20h10v10h-10zm0 20h10v10h-10zm0 10h10v10h-10zm10-440h10v10h-10zm0 10h10v10h-10zm0 20h10v10h-10zm0 10h10v10h-10zm0 30h10v10h-10zm0 10h10v10h-10zm0 20h10v10h-10zm0 20h10v10h-10zm0 10h10v10h-10zm0 10h10v10h-10zm0 10h10v10h-10zm0 80h10v10h-10zm0 10h10v10h-10zm0 20h10v10h-10zm0 30h10v10h-10zm0 10h10v10h-10zm0 60h10v10h-10zm0 20h10v10h-10zm0 20h10v10h-10zm0 20h10v10h-10zm0 10h10v10h-10zm10-400h10v10h-10zm0 30h10v10h-10zm0 10h10v10h-10zm0 10h10v10h-10zm0 10h10v10h-10zm0 20h10v10h-10zm0 20h10v10h-10zm0 40h10v10h-10zm0 10h10v10h-10zm0 10h10v10h-10zm0 30h10v10h-10zm0 10h10v10h-10zm0 10h10v10h-10zm0 10h10v10h-10zm0 20h10v10h-10zm0 30h10v10h-10zm0 10h10v10h-10zm0 20h10v10h-10zm0 30h10v10h-10zm0 10h10v10h-10zm0 10h10v10h-10zm0 50h10v10h-10zm10-420h10v10h-10zm0 10h10v10h-10zm0 10h10v10h-10zm0 20h10v10h-10zm0 40h10v10h-10zm0 10h10v10h-10zm0 30h10v10h-10zm0 30h10v10h-10zm0 10h10v10h-10zm0 10h10v10h-10zm0 10h10v10h-10zm0 20h10v10h-10zm0 10h10v10h-10zm0 30h10v10h-10zm0 10h10v10h-10zm0 10h10v10h-10zm0 10h10v10h-10zm0 20h10v10h-10zm0 20h10v10h-10zm0 10h10v10h-10zm0 10h10v10h-10zm0 10h10v10h-10zm0 80h10v10h-10zm0 10h10v10h-10zm10-430h10v10h-10zm0 30h10v10h-10zm0 10h10v10h-10zm0 10h10v10h-10zm0 10h10v10h-10zm0 10h10v10h-10zm0 30h10v10h-10zm0 10h10v10h-10zm0 20h10v10h-10zm0 40h10v10h-10zm0 10h10v10h-10zm0 10h10v10h-10zm0 10h10v10h-10zm0 10h10v10h-10zm0 10h10v10h-10zm0 10h10v10h-10zm0 10h10v10h-10zm0 20h10v10h-10zm0 10h10v10h-10zm0 40h10v10h-10zm0 20h10v10h-10zm0 10h10v10h-10zm0 10h10v10h-10zm0 10h10v10h-10zm0 10h10v10h-10zm0 10h10v10h-10zm0 10h10v10h-10zm10-400h10v10h-10zm0 10h10v10h-10zm0 10h10v10h-10zm0 20h10v10h-10zm0 40h10v10h-10zm0 10h10v10h-10zm0 40h10v10h-10zm0 10h10v10h-10zm0 10h10v10h-10zm0 10h10v10h-10zm0 30h10v10h-10zm0 10h10v10h-10zm0 40h10v10h-10zm0 40h10v10h-10zm0 10h10v10h-10zm0 40h10v10h-10zm0 20h10v10h-10zm0 10h10v10h-10zm0 40h10v10h-10zm0 30h10v10h-10zm10-390h10v10h-10zm0 20h10v10h-10zm0 20h10v10h-10zm0 10h10v10h-10zm0 10h10v10h-10zm0 30h10v10h-10zm0 20h10v10h-10zm0 10h10v10h-10zm0 10h10v10h-10zm0 30h10v10h-10zm0 20h10v10h-10zm0 20h10v10h-10zm0 50h10v10h-10zm0 20h10v10h-10zm0 20h10v10h-10zm0 30h10v10h-10zm0 20h10v10h-10zm0 20h10v10h-10zm0 10h10v10h-10zm0 20h10v10h-10zm10-430h10v10h-10zm0 20h10v10h-10zm0 10h10v10h-10zm0 10h10v10h-10zm0 40h10v10h-10zm0 20h10v10h-10zm0 10h10v10h-10zm0 10h10v10h-10zm0 10h10v10h-10zm0 10h10v10h-10zm0 20h10v10h-10zm0 10h10v10h-10zm0 10h10v10h-10zm0 10h10v10h-10zm0 10h10v10h-10zm0 40h10v10h-10zm0 50h10v10h-10zm0 10h10v10h-10zm0 20h10v10h-10zm0 10h10v10h-10zm0 10h10v10h-10zm0 10h10v10h-10zm0 10h10v10h-10zm0 40h10v10h-10zm0 30h10v10h-10zm0 10h10v10h-10zm10-420h10v10h-10zm0 10h10v10h-10zm0 10h10v10h-10zm0 10h10v10h-10zm0 10h10v10h-10zm0 10h10v10h-10zm0 10h10v10h-10zm0 20h10v10h-10zm0 10h10v10h-10zm0 30h10v10h-10zm0 10h10v10h-10zm0 20h10v10h-10zm0 10h10v10h-10zm0 10h10v10h-10zm0 10h10v10h-10zm0 10h10v10h-10zm0 10h10v10h-10zm0 10h10v10h-10zm0 10h10v10h-10zm0 10h10v10h-10zm0 10h10v10h-10zm0 10h10v10h-10zm0 20h10v10h-10zm0 10h10v10h-10zm0 20h10v10h-10zm0 20h10v10h-10zm0 10h10v10h-10zm0 10h10v10h-10zm0 10h10v10h-10zm0 10h10v10h-10zm0 10h10v10h-10zm0 10h10v10h-10zm0 10h10v10h-10zm0 30h10v10h-10zm10-420h10v10h-10zm0 10h10v10h-10zm0 40h10v10h-10zm0 40h10v10h-10zm0 30h10v10h-10zm0 30h10v10h-10zm0 10h10v10h-10zm0 20h10v10h-10zm0 10h10v10h-10zm0 10h10v10h-10zm0 10h10v10h-10zm0 10h10v10h-10zm0 20h10v10h-10zm0 10h10v10h-10zm0 20h10v10h-10zm0 10h10v10h-10zm0 30h10v10h-10zm0 20h10v10h-10zm0 40h10v10h-10zm0 20h10v10h-10zm0 20h10v10h-10zm10-430h10v10h-10zm0 10h10v10h-10zm0 10h10v10h-10zm0 10h10v10h-10zm0 10h10v10h-10zm0 10h10v10h-10zm0 10h10v10h-10zm0 20h10v10h-10zm0 20h10v10h-10zm0 60h10v10h-10zm0 10h10v10h-10zm0 20h10v10h-10zm0 10h10v10h-10zm0 10h10v10h-10zm0 10h10v10h-10zm0 10h10v10h-10zm0 30h10v10h-10zm0 10h10v10h-10zm0 30h10v10h-10zm0 10h10v10h-10zm0 10h10v10h-10zm0 10h10v10h-10zm0 20h10v10h-10zm0 20h10v10h-10zm0 30h10v10h-10zm0 10h10v10h-10zm0 10h10v10h-10zm0 10h10v10h-10zm10-430h10v10h-10zm0 10h10v10h-10zm0 10h10v10h-10zm0 20h10v10h-10zm0 10h10v10h-10zm0 30h10v10h-10zm0 10h10v10h-10zm0 40h10v10h-10zm0 30h10v10h-10zm0 20h10v10h-10zm0 10h10v10h-10zm0 10h10v10h-10zm0 20h10v10h-10zm0 10h10v10h-10zm0 10h10v10h-10zm0 60h10v10h-10zm0 60h10v10h-10zm0 20h10v10h-10zm0 10h10v10h-10zm0 10h10v10h-10zm10-380h10v10h-10zm0 10h10v10h-10zm0 10h10v10h-10zm0 10h10v10h-10zm0 10h10v10h-10zm0 50h10v10h-10zm0 20h10v10h-10zm0 20h10v10h-10zm0 20h10v10h-10zm0 30h10v10h-10zm0 20h10v10h-10zm0 20h10v10h-10zm0 20h10v10h-10zm0 10h10v10h-10zm0 60h10v10h-10zm0 10h10v10h-10zm0 60h10v10h-10zm0 40h10v10h-10zm10-420h10v10h-10zm0 10h10v10h-10zm0 10h10v10h-10zm0 10h10v10h-10zm0 20h10v10h-10zm0 20h10v10h-10zm0 10h10v10h-10zm0 20h10v10h-10zm0 30h10v10h-10zm0 20h10v10h-10zm0 10h10v10h-10zm0 50h10v10h-10zm0 10h10v10h-10zm0 20h10v10h-10zm0 10h10v10h-10zm0 10h10v10h-10zm0 10h10v10h-10zm0 10h10v10h-10zm0 10h10v10h-10zm0 20h10v10h-10zm0 20h10v10h-10zm0 20h10v10h-10zm0 10h10v10h-10zm0 10h10v10h-10zm0 20h10v10h-10zm0 20h10v10h-10zm10-410h10v10h-10zm0 10h10v10h-10zm0 20h10v10h-10zm0 10h10v10h-10zm0 30h10v10h-10zm0 10h10v10h-10zm0 10h10v10h-10zm0 10h10v10h-10zm0 20h10v10h-10zm0 60h10v10h-10zm0 20h10v10h-10zm0 40h10v10h-10zm0 10h10v10h-10zm0 10h10v10h-10zm0 10h10v10h-10zm0 10h10v10h-10zm0 10h10v10h-10zm0 10h10v10h-10zm0 10h10v10h-10zm0 30h10v10h-10zm0 10h10v10h-10zm0 30h10v10h-10zm0 20h10v10h-10zm0 10h10v10h-10zm10-430h10v10h-10zm0 30h10v10h-10zm0 40h10v10h-10zm0 30h10v10h-10zm0 20h10v10h-10zm0 30h10v10h-10zm0 10h10v10h-10zm0 10h10v10h-10zm0 10h10v10h-10zm0 10h10v10h-10zm0 20h10v10h-10zm0 20h10v10h-10zm0 10h10v10h-10zm0 10h10v10h-10zm0 10h10v10h-10zm0 10h10v10h-10zm0 30h10v10h-10zm0 40h10v10h-10zm0 20h10v10h-10zm0 20h10v10h-10zm0 20h10v10h-10zm0 30h10v10h-10zm10-390h10v10h-10zm0 20h10v10h-10zm0 30h10v10h-10zm0 10h10v10h-10zm0 20h10v10h-10zm0 10h10v10h-10zm0 50h10v10h-10zm0 10h10v10h-10zm0 70h10v10h-10zm0 40h10v10h-10zm0 20h10v10h-10zm0 80h10v10h-10zm0 20h10v10h-10zm0 20h10v10h-10zm10-410h10v10h-10zm0 20h10v10h-10zm0 30h10v10h-10zm0 20h10v10h-10zm0 50h10v10h-10zm0 20h10v10h-10zm0 20h10v10h-10zm0 10h10v10h-10zm0 60h10v10h-10zm0 10h10v10h-10zm0 10h10v10h-10zm0 10h10v10h-10zm0 10h10v10h-10zm0 70h10v10h-10zm0 20h10v10h-10zm0 20h10v10h-10zm0 10h10v10h-10zm10-380h10v10h-10zm0 20h10v10h-10zm0 20h10v10h-10zm0 40h10v10h-10zm0 30h10v10h-10zm0 70h10v10h-10zm0 30h10v10h-10zm0 20h10v10h-10zm0 20h10v10h-10zm0 10h10v10h-10zm0 10h10v10h-10zm0 10h10v10h-10zm0 10h10v10h-10zm0 20h10v10h-10zm0 20h10v10h-10zm10-360h10v10h-10zm0 10h10v10h-10zm0 10h10v10h-10zm0 10h10v10h-10zm0 30h10v10h-10zm0 10h10v10h-10zm0 20h10v10h-10zm0 10h10v10h-10zm0 30h10v10h-10zm0 40h10v10h-10zm0 10h10v10h-10zm0 30h10v10h-10zm0 10h10v10h-10zm0 10h10v10h-10zm0 20h10v10h-10zm0 60h10v10h-10zm0 10h10v10h-10zm0 30h10v10h-10zm0 20h10v10h-10zm0 10h10v10h-10zm0 10h10v10h-10zm0 40h10v10h-10zm10-440h10v10h-10zm0 30h10v10h-10zm0 10h10v10h-10zm0 20h10v10h-10zm0 40h10v10h-10zm0 30h10v10h-10zm0 30h10v10h-10zm0 10h10v10h-10zm0 30h10v10h-10zm0 10h10v10h-10zm0 10h10v10h-10zm0 10h10v10h-10zm0 10h10v10h-10zm0 50h10v10h-10zm0 10h10v10h-10zm0 20h10v10h-10zm0 40h10v10h-10zm0 10h10v10h-10zm0 10h10v10h-10zm0 10h10v10h-10zm0 10h10v10h-10zm0 30h10v10h-10zm0 10h10v10h-10zm10-360h10v10h-10zm0 10h10v10h-10zm0 10h10v10h-10zm0 20h10v10h-10zm0 10h10v10h-10zm0 20h10v10h-10zm0 10h10v10h-10zm0 10h10v10h-10zm0 10h10v10h-10zm0 20h10v10h-10zm0 40h10v10h-10zm0 20h10v10h-10zm0 10h10v10h-10zm0 20h10v10h-10zm0 10h10v10h-10zm0 10h10v10h-10zm0 10h10v10h-10zm0 40h10v10h-10zm0 40h10v10h-10zm0 10h10v10h-10zm0 10h10v10h-10zm0 10h10v10h-10zm10-330h10v10h-10zm0 10h10v10h-10zm0 10h10v10h-10zm0 20h10v10h-10zm0 10h10v10h-10zm0 20h10v10h-10zm0 10h10v10h-10zm0 10h10v10h-10zm0 10h10v10h-10zm0 20h10v10h-10zm0 20h10v10h-10zm0 10h10v10h-10zm0 50h10v10h-10zm0 10h10v10h-10zm0 10h10v10h-10zm0 10h10v10h-10zm0 10h10v10h-10zm0 10h10v10h-10zm0 10h10v10h-10zm0 20h10v10h-10zm0 20h10v10h-10zm0 20h10v10h-10zm0 10h10v10h-10zm10-320h10v10h-10zm0 10h10v10h-10zm0 20h10v10h-10zm0 30h10v10h-10zm0 20h10v10h-10zm0 10h10v10h-10zm0 40h10v10h-10zm0 20h10v10h-10zm0 10h10v10h-10zm0 20h10v10h-10zm0 20h10v10h-10zm0 40h10v10h-10zm0 10h10v10h-10zm0 40h10v10h-10zm0 30h10v10h-10zm10-350h10v10h-10zm0 70h10v10h-10zm0 20h10v10h-10zm0 30h10v10h-10zm0 10h10v10h-10zm0 10h10v10h-10zm0 10h10v10h-10zm0 10h10v10h-10zm0 30h10v10h-10zm0 30h10v10h-10zm0 20h10v10h-10zm0 10h10v10h-10zm0 10h10v10h-10zm0 20h10v10h-10zm0 10h10v10h-10zm0 10h10v10h-10zm0 10h10v10h-10zm0 10h10v10h-10zm0 40h10v10h-10zm10-350h10v10h-10zm0 10h10v10h-10zm0 10h10v10h-10zm0 10h10v10h-10zm0 10h10v10h-10zm0 10h10v10h-10zm0 10h10v10h-10zm0 10h10v10h-10zm0 10h10v10h-10zm0 10h10v10h-10zm0 40h10v10h-10zm0 10h10v10h-10zm0 10h10v10h-10zm0 50h10v10h-10zm0 10h10v10h-10zm0 20h10v10h-10zm0 50h10v10h-10zm0 10h10v10h-10zm0 10h10v10h-10zm0 10h10v10h-10zm0 10h10v10h-10zm0 20h10v10h-10zm0 10h10v10h-10zm10-350h10v10h-10zm0 10h10v10h-10zm0 10h10v10h-10zm0 50h10v10h-10zm0 10h10v10h-10zm0 20h10v10h-10zm0 20h10v10h-10zm0 10h10v10h-10zm0 40h10v10h-10zm0 20h10v10h-10zm0 10h10v10h-10zm0 10h10v10h-10zm0 10h10v10h-10zm0 20h10v10h-10zm0 20h10v10h-10zm0 50h10v10h-10zm0 10h10v10h-10zm0 20h10v10h-10zm10-350h10v10h-10zm0 30h10v10h-10zm0 10h10v10h-10zm0 10h10v10h-10zm0 100h10v10h-10zm0 10h10v10h-10zm0 10h10v10h-10zm0 30h10v10h-10zm0 10h10v10h-10zm0 20h10v10h-10zm0 10h10v10h-10zm0 50h10v10h-10zm0 20h10v10h-10zm0 10h10v10h-10zm10-290h10v10h-10zm0 10h10v10h-10zm0 40h10v10h-10zm0 10h10v10h-10zm0 10h10v10h-10zm0 10h10v10h-10zm0 50h10v10h-10zm0 50h10v10h-10zm0 10h10v10h-10zm0 20h10v10h-10zm0 10h10v10h-10zm0 10h10v10h-10zm0 10h10v10h-10zm0 40h10v10h-10zm0 50h10v10h-10z"
         id="path1" />
      <path
         clip-rule="evenodd"
         d="M25 25v70h70V25zm10 10h50v50H35z"
         id="path2" />
      <path
         d="M45 45h30v30H45z"
         id="path3" />
      <path
         clip-rule="evenodd"
         d="M405 25v70h70V25zm10 10h50v50h-50z"
         transform="rotate(90 440 60)"
         id="path4" />
      <path
         transform="rotate(90 440 60)"
         d="M425 45h30v30h-30z"
         id="path5" />
      <path
         clip-rule="evenodd"
         d="M25 405v70h70v-70zm10 10h50v50H35z"
         transform="rotate(-90 60 440)"
         id="path6" />
      <path
         transform="rotate(-90 60 440)"
         d="M45 425h30v30H45z"
         id="path7" />
    </clipPath>
  </defs>
  <path
     clip-path="url('#a')"
     d="M0 0h500v500H0z"
     id="path9" />
</svg>
